<?xml version="1.0" encoding="UTF-8" standalone="no"?>
<!-- Created with Inkscape (http://www.inkscape.org/) -->
<svg xmlns:dc="http://purl.org/dc/elements/1.1/" xmlns:cc="http://creativecommons.org/ns#" xmlns:rdf="http://www.w3.org/1999/02/22-rdf-syntax-ns#" xmlns:svg="http://www.w3.org/2000/svg" xmlns="http://www.w3.org/2000/svg" xmlns:xlink="http://www.w3.org/1999/xlink" xmlns:inkscape="http://www.inkscape.org/namespaces/inkscape" version="1.1" width="744.09448" height="524.40942" id="svg2">
  <defs id="defs4">
    <linearGradient id="linearGradient4797">
      <stop id="stop4799" style="stop-color:#d40000;stop-opacity:1" offset="0"/>
      <stop id="stop4801" style="stop-color:#d40000;stop-opacity:0" offset="1"/>
    </linearGradient>
    <linearGradient id="linearGradient4743">
      <stop id="stop4745" style="stop-color:#ffffff;stop-opacity:1" offset="0"/>
      <stop id="stop4747" style="stop-color:#ffffff;stop-opacity:0" offset="1"/>
    </linearGradient>
    <linearGradient id="linearGradient4460">
      <stop id="stop4462" style="stop-color:#d40000;stop-opacity:1" offset="0"/>
      <stop id="stop4464" style="stop-color:#d40000;stop-opacity:0" offset="1"/>
    </linearGradient>
    <linearGradient id="linearGradient3618">
      <stop id="stop3620" style="stop-color:#ffffff;stop-opacity:1" offset="0"/>
      <stop id="stop3622" style="stop-color:#ffffff;stop-opacity:0" offset="1"/>
    </linearGradient>
    <linearGradient id="linearGradient3602">
      <stop id="stop3604" style="stop-color:#ffffff;stop-opacity:1" offset="0"/>
      <stop id="stop3606" style="stop-color:#ffffff;stop-opacity:0" offset="1"/>
    </linearGradient>
    <linearGradient x1="404.05359" y1="777.73535" x2="394.509" y2="1003.6236" id="linearGradient6510" xlink:href="#linearGradient6466" gradientUnits="userSpaceOnUse" gradientTransform="translate(-598.36717,56.937545)"/>
    <linearGradient x1="404.05359" y1="777.73535" x2="394.509" y2="1003.6236" id="linearGradient6507" xlink:href="#linearGradient6466" gradientUnits="userSpaceOnUse"/>
    <linearGradient x1="529.72382" y1="71.436989" x2="524.95154" y2="472.30902" id="linearGradient6505" xlink:href="#linearGradient6432" gradientUnits="userSpaceOnUse" gradientTransform="translate(-576.0965,-162.58763)"/>
    <radialGradient cx="590.20935" cy="411.26886" r="353.1492" fx="590.20935" fy="411.26886" id="radialGradient6503" xlink:href="#linearGradient6145" gradientUnits="userSpaceOnUse" gradientTransform="matrix(0.977961,0.45847396,-0.36104502,0.77013681,121.68855,-159.56122)"/>
    <linearGradient x1="404.05359" y1="777.73535" x2="394.509" y2="1003.6236" id="linearGradient6472" xlink:href="#linearGradient6466" gradientUnits="userSpaceOnUse"/>
    <linearGradient x1="529.72382" y1="71.436989" x2="524.95154" y2="472.30902" id="linearGradient6458" xlink:href="#linearGradient6432" gradientUnits="userSpaceOnUse" gradientTransform="translate(-576.0965,-162.58763)"/>
    <linearGradient x1="529.72382" y1="71.436989" x2="524.95154" y2="472.30902" id="linearGradient6454" xlink:href="#linearGradient6432" gradientUnits="userSpaceOnUse" gradientTransform="translate(-598.36717,56.937545)"/>
    <linearGradient x1="529.72382" y1="71.436989" x2="524.95154" y2="472.30902" id="linearGradient6450" xlink:href="#linearGradient6432" gradientUnits="userSpaceOnUse" gradientTransform="translate(-598.36717,56.937545)"/>
    <linearGradient x1="529.72382" y1="71.436989" x2="524.95154" y2="472.30902" id="linearGradient6446" xlink:href="#linearGradient6432" gradientUnits="userSpaceOnUse" gradientTransform="translate(-598.36717,56.937545)"/>
    <linearGradient x1="529.72382" y1="71.436989" x2="524.95154" y2="472.30902" id="linearGradient6442" xlink:href="#linearGradient6432" gradientUnits="userSpaceOnUse" gradientTransform="translate(-598.36717,56.937545)"/>
    <linearGradient x1="529.72382" y1="71.436989" x2="524.95154" y2="472.30902" id="linearGradient6438" xlink:href="#linearGradient6432" gradientUnits="userSpaceOnUse"/>
    <filter x="-0.15000001" y="-0.15000001" width="1.3" height="1.3" color-interpolation-filters="sRGB" id="filter6407">
      <feTurbulence seed="5" baseFrequency="0.25 0.4" numOctaves="3" type="fractalNoise" id="feTurbulence6409"/>
      <feColorMatrix values="1 0 0 0 0 0 1 0 0 0 0 0 1 0 0 0 0 0 1 0 " result="result5" id="feColorMatrix6411"/>
      <feComposite in2="result5" operator="in" in="SourceGraphic" id="feComposite6413"/>
      <feMorphology result="result3" radius="1.5" operator="dilate" id="feMorphology6415"/>
      <feTurbulence seed="7" type="fractalNoise" baseFrequency="0.03" numOctaves="5" id="feTurbulence6417"/>
      <feGaussianBlur result="result91" stdDeviation="0.5" id="feGaussianBlur6419"/>
      <feDisplacementMap in2="result91" scale="27" xChannelSelector="R" yChannelSelector="G" in="result3" result="result4" id="feDisplacementMap6421"/>
      <feComposite in2="result4" operator="arithmetic" k1="1.3" k2="0" k3="0.8" k4="0" in="result4" result="result2" id="feComposite6423"/>
      <feBlend in2="result2" mode="screen" in="result2" id="feBlend6425"/>
    </filter>
    <filter color-interpolation-filters="sRGB" id="filter6397">
      <feGaussianBlur id="feGaussianBlur6399" stdDeviation="24.584223"/>
    </filter>
    <clipPath id="clipPath6355">
      <path d="m 1905.733,776.14459 a 540.85913,357.92148 0 1 1 -1081.71823,0 540.85913,357.92148 0 1 1 1081.71823,0 z" transform="translate(-642.90851,82.38974)" id="path6357" style="fill:#ffffff;fill-opacity:1;stroke:none"/>
    </clipPath>
    <mask id="mask6207">
      <path d="m -386.55521,-832.91132 a 275.99722,245.77275 0 1 1 -551.99444,0 275.99722,245.77275 0 1 1 551.99444,0 z" transform="translate(-598.36717,56.937545)" id="path6209" style="fill:#ffffff;fill-opacity:1;stroke:none"/>
    </mask>
    <radialGradient cx="590.20935" cy="411.26886" r="353.1492" fx="590.20935" fy="411.26886" id="radialGradient6151" xlink:href="#linearGradient6145" gradientUnits="userSpaceOnUse" gradientTransform="matrix(0.977961,0.45847396,-0.36104502,0.77013681,121.68855,-159.56122)"/>
    <filter color-interpolation-filters="sRGB" id="filter4767">
      <feGaussianBlur id="feGaussianBlur4769" stdDeviation="2.7382356"/>
    </filter>
    <inkscape:path-effect effect="spiro" id="path-effect4709"/>
    <inkscape:path-effect effect="spiro" id="path-effect4717"/>
    <inkscape:path-effect effect="spiro" id="path-effect4721"/>
    <inkscape:path-effect effect="spiro" id="path-effect5916"/>
    <inkscape:path-effect effect="spiro" id="path-effect5948"/>
    <linearGradient id="linearGradient6145">
      <stop id="stop6147" style="stop-color:#ffffff;stop-opacity:1" offset="0"/>
      <stop id="stop6149" style="stop-color:#ffffff;stop-opacity:0" offset="1"/>
    </linearGradient>
    <inkscape:path-effect effect="spiro" id="path-effect6193"/>
    <inkscape:path-effect effect="spiro" id="path-effect6197"/>
    <inkscape:path-effect effect="spiro" id="path-effect6201"/>
    <linearGradient id="linearGradient6432">
      <stop id="stop6434" style="stop-color:#ffffff;stop-opacity:1" offset="0"/>
      <stop id="stop6436" style="stop-color:#ffffff;stop-opacity:0" offset="1"/>
    </linearGradient>
    <linearGradient id="linearGradient6466">
      <stop id="stop6468" style="stop-color:#cccccc;stop-opacity:1" offset="0"/>
      <stop id="stop6470" style="stop-color:#cccccc;stop-opacity:0" offset="1"/>
    </linearGradient>
    <linearGradient x1="269.41049" y1="1393.8878" x2="226.06873" y2="1839.689" id="linearGradient4038" xlink:href="#linearGradient4006" gradientUnits="userSpaceOnUse"/>
    <linearGradient x1="269.41049" y1="1393.8878" x2="226.06873" y2="1839.689" id="linearGradient4034" xlink:href="#linearGradient4006" gradientUnits="userSpaceOnUse"/>
    <linearGradient x1="269.41049" y1="1393.8878" x2="226.06873" y2="1839.689" id="linearGradient4012" xlink:href="#linearGradient4006" gradientUnits="userSpaceOnUse"/>
    <clipPath id="clipPath4002">
      <path d="m -164.00728,1505.3382 c 0,0 71.204353,108.3544 247.667307,173.3671 176.462953,65.0126 139.312853,77.396 359.117583,80.4919 219.80473,3.0958 783.24789,-291.0091 783.24789,-291.0091 0,0 -1058.77775,-321.9675 -1191.898932,-309.5842 -133.121177,12.3834 -464.376198,114.5462 -433.417778,133.1212 30.95841,18.5751 235.28393,213.6131 235.28393,213.6131 z" id="path4004" style="fill:none;stroke:#000000;stroke-width:1px;stroke-linecap:butt;stroke-linejoin:miter;stroke-opacity:1"/>
    </clipPath>
    <linearGradient x1="404.05359" y1="777.73535" x2="394.509" y2="1003.6236" id="linearGradient7183" xlink:href="#linearGradient6466-3" gradientUnits="userSpaceOnUse" gradientTransform="translate(-2745.4902,251.55593)"/>
    <linearGradient x1="404.05359" y1="777.73535" x2="394.509" y2="1003.6236" id="linearGradient7180" xlink:href="#linearGradient6466-3" gradientUnits="userSpaceOnUse"/>
    <linearGradient x1="529.72382" y1="71.436989" x2="524.95154" y2="472.30902" id="linearGradient7178" xlink:href="#linearGradient6432-1" gradientUnits="userSpaceOnUse" gradientTransform="translate(-576.0965,-162.58763)"/>
    <radialGradient cx="590.20935" cy="411.26886" r="353.1492" fx="590.20935" fy="411.26886" id="radialGradient7176" xlink:href="#linearGradient6145-6" gradientUnits="userSpaceOnUse" gradientTransform="matrix(0.977961,0.45847396,-0.36104502,0.77013681,121.68855,-159.56122)"/>
    <linearGradient id="linearGradient6466-3">
      <stop id="stop6468-7" style="stop-color:#cccccc;stop-opacity:1" offset="0"/>
      <stop id="stop6470-7" style="stop-color:#cccccc;stop-opacity:0" offset="1"/>
    </linearGradient>
    <linearGradient x1="404.05359" y1="777.73535" x2="394.509" y2="1003.6236" id="linearGradient6507-9" xlink:href="#linearGradient6466-3" gradientUnits="userSpaceOnUse"/>
    <clipPath id="clipPath6355-2">
      <path d="m 1905.733,776.14459 a 540.85913,357.92148 0 1 1 -1081.71823,0 540.85913,357.92148 0 1 1 1081.71823,0 z" transform="translate(-642.90851,82.38974)" id="path6357-9" style="fill:#ffffff;fill-opacity:1;stroke:none"/>
    </clipPath>
    <filter x="-0.15000001" y="-0.15000001" width="1.3" height="1.3" color-interpolation-filters="sRGB" id="filter7006">
      <feTurbulence seed="5" baseFrequency="0.25 0.4" numOctaves="3" type="fractalNoise" id="feTurbulence7008"/>
      <feColorMatrix values="1 0 0 0 0 0 1 0 0 0 0 0 1 0 0 0 0 0 1 0 " result="result5" id="feColorMatrix7010"/>
      <feComposite in2="result5" operator="in" in="SourceGraphic" id="feComposite7012"/>
      <feMorphology result="result3" radius="1.5" operator="dilate" id="feMorphology7014"/>
      <feTurbulence seed="7" type="fractalNoise" baseFrequency="0.03" numOctaves="5" id="feTurbulence7016"/>
      <feGaussianBlur result="result91" stdDeviation="0.5" id="feGaussianBlur7018"/>
      <feDisplacementMap in2="result91" scale="27" xChannelSelector="R" yChannelSelector="G" in="result3" result="result4" id="feDisplacementMap7020"/>
      <feComposite in2="result4" operator="arithmetic" k1="1.3" k2="0" k3="0.8" k4="0" in="result4" result="result2" id="feComposite7022"/>
      <feBlend in2="result2" mode="screen" in="result2" id="feBlend7024"/>
    </filter>
    <linearGradient id="linearGradient6432-1">
      <stop id="stop6434-1" style="stop-color:#ffffff;stop-opacity:1" offset="0"/>
      <stop id="stop6436-6" style="stop-color:#ffffff;stop-opacity:0" offset="1"/>
    </linearGradient>
    <linearGradient x1="529.72382" y1="71.436989" x2="524.95154" y2="472.30902" id="linearGradient6505-5" xlink:href="#linearGradient6432-1" gradientUnits="userSpaceOnUse" gradientTransform="translate(-576.0965,-162.58763)"/>
    <filter color-interpolation-filters="sRGB" id="filter6998">
      <feGaussianBlur id="feGaussianBlur7000" stdDeviation="24.584223"/>
    </filter>
    <filter x="-0.15000001" y="-0.15000001" width="1.3" height="1.3" color-interpolation-filters="sRGB" id="filter6407-8">
      <feTurbulence seed="5" baseFrequency="0.25 0.4" numOctaves="3" type="fractalNoise" id="feTurbulence6409-8"/>
      <feColorMatrix values="1 0 0 0 0 0 1 0 0 0 0 0 1 0 0 0 0 0 1 0 " result="result5" id="feColorMatrix6411-8"/>
      <feComposite in2="result5" operator="in" in="SourceGraphic" id="feComposite6413-8"/>
      <feMorphology result="result3" radius="1.5" operator="dilate" id="feMorphology6415-0"/>
      <feTurbulence seed="7" type="fractalNoise" baseFrequency="0.03" numOctaves="5" id="feTurbulence6417-3"/>
      <feGaussianBlur result="result91" stdDeviation="0.5" id="feGaussianBlur6419-3"/>
      <feDisplacementMap in2="result91" scale="27" xChannelSelector="R" yChannelSelector="G" in="result3" result="result4" id="feDisplacementMap6421-3"/>
      <feComposite in2="result4" operator="arithmetic" k1="1.3" k2="0" k3="0.8" k4="0" in="result4" result="result2" id="feComposite6423-5"/>
      <feBlend in2="result2" mode="screen" in="result2" id="feBlend6425-9"/>
    </filter>
    <linearGradient id="linearGradient6145-6">
      <stop id="stop6147-6" style="stop-color:#ffffff;stop-opacity:1" offset="0"/>
      <stop id="stop6149-9" style="stop-color:#ffffff;stop-opacity:0" offset="1"/>
    </linearGradient>
    <radialGradient cx="590.20935" cy="411.26886" r="353.1492" fx="590.20935" fy="411.26886" id="radialGradient6503-7" xlink:href="#linearGradient6145-6" gradientUnits="userSpaceOnUse" gradientTransform="matrix(0.977961,0.45847396,-0.36104502,0.77013681,121.68855,-159.56122)"/>
    <filter color-interpolation-filters="sRGB" id="filter6980">
      <feGaussianBlur id="feGaussianBlur6982" stdDeviation="24.584223"/>
    </filter>
    <filter color-interpolation-filters="sRGB" id="filter6976">
      <feGaussianBlur id="feGaussianBlur6978" stdDeviation="24.584223"/>
    </filter>
    <filter color-interpolation-filters="sRGB" id="filter6397-8">
      <feGaussianBlur id="feGaussianBlur6399-4" stdDeviation="24.584223"/>
    </filter>
    <filter color-interpolation-filters="sRGB" id="filter6623">
      <feGaussianBlur stdDeviation="6.444002" id="feGaussianBlur6625"/>
    </filter>
    <filter color-interpolation-filters="sRGB" id="filter6591">
      <feGaussianBlur stdDeviation="6.2878067" id="feGaussianBlur6593"/>
    </filter>
    <filter color-interpolation-filters="sRGB" id="filter6579">
      <feGaussianBlur stdDeviation="5.0432812" id="feGaussianBlur6581"/>
    </filter>
    <filter x="-0.15000001" y="-0.15000001" width="1.3" height="1.3" color-interpolation-filters="sRGB" id="filter6407-1">
      <feTurbulence id="feTurbulence6409-5" type="fractalNoise" numOctaves="3" baseFrequency="0.25 0.4" seed="5"/>
      <feColorMatrix id="feColorMatrix6411-0" result="result5" values="1 0 0 0 0 0 1 0 0 0 0 0 1 0 0 0 0 0 1 0 "/>
      <feComposite in2="result5" operator="in" in="SourceGraphic" id="feComposite6413-5"/>
      <feMorphology id="feMorphology6415-3" operator="dilate" radius="1.5" result="result3"/>
      <feTurbulence id="feTurbulence6417-5" numOctaves="5" baseFrequency="0.03" type="fractalNoise" seed="7"/>
      <feGaussianBlur id="feGaussianBlur6419-7" stdDeviation="0.5" result="result91"/>
      <feDisplacementMap in2="result91" scale="27" xChannelSelector="R" yChannelSelector="G" in="result3" result="result4" id="feDisplacementMap6421-0"/>
      <feComposite in2="result4" operator="arithmetic" k1="1.3" k2="0" k3="0.8" k4="0" in="result4" result="result2" id="feComposite6423-2"/>
      <feBlend in2="result2" mode="screen" in="result2" id="feBlend6425-3"/>
    </filter>
    <clipPath id="clipPath6355-7">
      <path d="m 1905.733,776.14459 a 540.85913,357.92148 0 1 1 -1081.71823,0 540.85913,357.92148 0 1 1 1081.71823,0 z" transform="translate(-642.90851,82.38974)" id="path6357-5" style="fill:#ffffff;fill-opacity:1;stroke:none"/>
    </clipPath>
    <mask id="mask6207-0">
      <path d="m -386.55521,-832.91132 a 275.99722,245.77275 0 1 1 -551.99444,0 275.99722,245.77275 0 1 1 551.99444,0 z" transform="translate(-598.36717,56.937545)" id="path6209-1" style="fill:#ffffff;fill-opacity:1;stroke:none"/>
    </mask>
    <filter color-interpolation-filters="sRGB" id="filter4767-7">
      <feGaussianBlur stdDeviation="2.7382356" id="feGaussianBlur4769-3"/>
    </filter>
    <inkscape:path-effect effect="spiro" id="path-effect4709-8"/>
    <inkscape:path-effect effect="spiro" id="path-effect4717-2"/>
    <inkscape:path-effect effect="spiro" id="path-effect4721-4"/>
    <inkscape:path-effect effect="spiro" id="path-effect5916-3"/>
    <inkscape:path-effect effect="spiro" id="path-effect5948-3"/>
    <inkscape:path-effect effect="spiro" id="path-effect6193-5"/>
    <inkscape:path-effect effect="spiro" id="path-effect6197-9"/>
    <inkscape:path-effect effect="spiro" id="path-effect6201-2"/>
    <linearGradient id="linearGradient4006">
      <stop id="stop4008" style="stop-color:#ffffff;stop-opacity:1" offset="0"/>
      <stop id="stop4010" style="stop-color:#ffffff;stop-opacity:0" offset="1"/>
    </linearGradient>
    <linearGradient x1="-5216" y1="-5611.6377" x2="-5688" y2="-4387.6377" id="linearGradient6200" xlink:href="#linearGradient6091" gradientUnits="userSpaceOnUse" gradientTransform="matrix(-0.33869973,0.08637476,-0.16344529,-0.17899021,-8235.5389,-4487.2273)"/>
    <linearGradient id="linearGradient6091">
      <stop id="stop6093" style="stop-color:#ffffff;stop-opacity:1" offset="0"/>
      <stop id="stop6095" style="stop-color:#ffffff;stop-opacity:0" offset="1"/>
    </linearGradient>
    <inkscape:path-effect effect="spiro" id="path-effect5940"/>
    <linearGradient x1="269.41049" y1="1393.8878" x2="226.06873" y2="1839.689" id="linearGradient4038-0" xlink:href="#linearGradient4006-5" gradientUnits="userSpaceOnUse"/>
    <linearGradient x1="269.41049" y1="1393.8878" x2="226.06873" y2="1839.689" id="linearGradient4034-4" xlink:href="#linearGradient4006-5" gradientUnits="userSpaceOnUse"/>
    <linearGradient x1="269.41049" y1="1393.8878" x2="226.06873" y2="1839.689" id="linearGradient4012-6" xlink:href="#linearGradient4006-5" gradientUnits="userSpaceOnUse"/>
    <clipPath id="clipPath4002-1">
      <path d="m -164.00728,1505.3382 c 0,0 71.204353,108.3544 247.667307,173.3671 176.462953,65.0126 139.312853,77.396 359.117583,80.4919 219.80473,3.0958 783.24789,-291.0091 783.24789,-291.0091 0,0 -1058.77775,-321.9675 -1191.898932,-309.5842 -133.121177,12.3834 -464.376198,114.5462 -433.417778,133.1212 30.95841,18.5751 235.28393,213.6131 235.28393,213.6131 z" id="path4004-2" style="fill:none;stroke:#000000;stroke-width:1px;stroke-linecap:butt;stroke-linejoin:miter;stroke-opacity:1"/>
    </clipPath>
    <linearGradient x1="404.05359" y1="777.73535" x2="394.509" y2="1003.6236" id="linearGradient7183-5" xlink:href="#linearGradient6466-3-9" gradientUnits="userSpaceOnUse" gradientTransform="translate(-2745.4902,251.55593)"/>
    <linearGradient x1="404.05359" y1="777.73535" x2="394.509" y2="1003.6236" id="linearGradient7180-8" xlink:href="#linearGradient6466-3-9" gradientUnits="userSpaceOnUse"/>
    <linearGradient x1="529.72382" y1="71.436989" x2="524.95154" y2="472.30902" id="linearGradient7178-7" xlink:href="#linearGradient6432-1-8" gradientUnits="userSpaceOnUse" gradientTransform="translate(-576.0965,-162.58763)"/>
    <radialGradient cx="590.20935" cy="411.26886" r="353.1492" fx="590.20935" fy="411.26886" id="radialGradient7176-7" xlink:href="#linearGradient6145-6-2" gradientUnits="userSpaceOnUse" gradientTransform="matrix(0.977961,0.45847396,-0.36104502,0.77013681,121.68855,-159.56122)"/>
    <linearGradient id="linearGradient6466-3-9">
      <stop id="stop6468-7-5" style="stop-color:#cccccc;stop-opacity:1" offset="0"/>
      <stop id="stop6470-7-1" style="stop-color:#cccccc;stop-opacity:0" offset="1"/>
    </linearGradient>
    <linearGradient x1="404.05359" y1="777.73535" x2="394.509" y2="1003.6236" id="linearGradient6507-9-5" xlink:href="#linearGradient6466-3-9" gradientUnits="userSpaceOnUse"/>
    <clipPath id="clipPath6355-2-9">
      <path d="m 1905.733,776.14459 a 540.85913,357.92148 0 1 1 -1081.71823,0 540.85913,357.92148 0 1 1 1081.71823,0 z" transform="translate(-642.90851,82.38974)" id="path6357-9-0" style="fill:#ffffff;fill-opacity:1;stroke:none"/>
    </clipPath>
    <filter x="-0.15000001" y="-0.15000001" width="1.3" height="1.3" color-interpolation-filters="sRGB" id="filter7006-0">
      <feTurbulence seed="5" baseFrequency="0.25 0.4" numOctaves="3" type="fractalNoise" id="feTurbulence7008-1"/>
      <feColorMatrix values="1 0 0 0 0 0 1 0 0 0 0 0 1 0 0 0 0 0 1 0 " result="result5" id="feColorMatrix7010-4"/>
      <feComposite in2="result5" operator="in" in="SourceGraphic" id="feComposite7012-8"/>
      <feMorphology result="result3" radius="1.5" operator="dilate" id="feMorphology7014-9"/>
      <feTurbulence seed="7" type="fractalNoise" baseFrequency="0.03" numOctaves="5" id="feTurbulence7016-7"/>
      <feGaussianBlur result="result91" stdDeviation="0.5" id="feGaussianBlur7018-1"/>
      <feDisplacementMap in2="result91" scale="27" xChannelSelector="R" yChannelSelector="G" in="result3" result="result4" id="feDisplacementMap7020-1"/>
      <feComposite in2="result4" operator="arithmetic" k1="1.3" k2="0" k3="0.8" k4="0" in="result4" result="result2" id="feComposite7022-2"/>
      <feBlend in2="result2" mode="screen" in="result2" id="feBlend7024-8"/>
    </filter>
    <linearGradient id="linearGradient6432-1-8">
      <stop id="stop6434-1-2" style="stop-color:#ffffff;stop-opacity:1" offset="0"/>
      <stop id="stop6436-6-6" style="stop-color:#ffffff;stop-opacity:0" offset="1"/>
    </linearGradient>
    <linearGradient x1="529.72382" y1="71.436989" x2="524.95154" y2="472.30902" id="linearGradient6505-5-6" xlink:href="#linearGradient6432-1-8" gradientUnits="userSpaceOnUse" gradientTransform="translate(-576.0965,-162.58763)"/>
    <filter color-interpolation-filters="sRGB" id="filter6998-7">
      <feGaussianBlur id="feGaussianBlur7000-7" stdDeviation="24.584223"/>
    </filter>
    <filter x="-0.15000001" y="-0.15000001" width="1.3" height="1.3" color-interpolation-filters="sRGB" id="filter6407-8-3">
      <feTurbulence seed="5" baseFrequency="0.25 0.4" numOctaves="3" type="fractalNoise" id="feTurbulence6409-8-2"/>
      <feColorMatrix values="1 0 0 0 0 0 1 0 0 0 0 0 1 0 0 0 0 0 1 0 " result="result5" id="feColorMatrix6411-8-6"/>
      <feComposite in2="result5" operator="in" in="SourceGraphic" id="feComposite6413-8-7"/>
      <feMorphology result="result3" radius="1.5" operator="dilate" id="feMorphology6415-0-6"/>
      <feTurbulence seed="7" type="fractalNoise" baseFrequency="0.03" numOctaves="5" id="feTurbulence6417-3-7"/>
      <feGaussianBlur result="result91" stdDeviation="0.5" id="feGaussianBlur6419-3-6"/>
      <feDisplacementMap in2="result91" scale="27" xChannelSelector="R" yChannelSelector="G" in="result3" result="result4" id="feDisplacementMap6421-3-1"/>
      <feComposite in2="result4" operator="arithmetic" k1="1.3" k2="0" k3="0.8" k4="0" in="result4" result="result2" id="feComposite6423-5-8"/>
      <feBlend in2="result2" mode="screen" in="result2" id="feBlend6425-9-1"/>
    </filter>
    <linearGradient id="linearGradient6145-6-2">
      <stop id="stop6147-6-1" style="stop-color:#ffffff;stop-opacity:1" offset="0"/>
      <stop id="stop6149-9-2" style="stop-color:#ffffff;stop-opacity:0" offset="1"/>
    </linearGradient>
    <radialGradient cx="590.20935" cy="411.26886" r="353.1492" fx="590.20935" fy="411.26886" id="radialGradient6503-7-0" xlink:href="#linearGradient6145-6-2" gradientUnits="userSpaceOnUse" gradientTransform="matrix(0.977961,0.45847396,-0.36104502,0.77013681,121.68855,-159.56122)"/>
    <filter color-interpolation-filters="sRGB" id="filter6980-4">
      <feGaussianBlur id="feGaussianBlur6982-5" stdDeviation="24.584223"/>
    </filter>
    <filter color-interpolation-filters="sRGB" id="filter6976-6">
      <feGaussianBlur id="feGaussianBlur6978-1" stdDeviation="24.584223"/>
    </filter>
    <filter color-interpolation-filters="sRGB" id="filter6397-8-6">
      <feGaussianBlur id="feGaussianBlur6399-4-9" stdDeviation="24.584223"/>
    </filter>
    <filter color-interpolation-filters="sRGB" id="filter6623-5">
      <feGaussianBlur stdDeviation="6.444002" id="feGaussianBlur6625-7"/>
    </filter>
    <filter color-interpolation-filters="sRGB" id="filter6591-4">
      <feGaussianBlur stdDeviation="6.2878067" id="feGaussianBlur6593-9"/>
    </filter>
    <filter color-interpolation-filters="sRGB" id="filter6579-8">
      <feGaussianBlur stdDeviation="5.0432812" id="feGaussianBlur6581-8"/>
    </filter>
    <filter x="-0.15000001" y="-0.15000001" width="1.3" height="1.3" color-interpolation-filters="sRGB" id="filter6407-9">
      <feTurbulence id="feTurbulence6409-9" type="fractalNoise" numOctaves="3" baseFrequency="0.25 0.4" seed="5"/>
      <feColorMatrix id="feColorMatrix6411-5" result="result5" values="1 0 0 0 0 0 1 0 0 0 0 0 1 0 0 0 0 0 1 0 "/>
      <feComposite in2="result5" operator="in" in="SourceGraphic" id="feComposite6413-1"/>
      <feMorphology id="feMorphology6415-9" operator="dilate" radius="1.5" result="result3"/>
      <feTurbulence id="feTurbulence6417-7" numOctaves="5" baseFrequency="0.03" type="fractalNoise" seed="7"/>
      <feGaussianBlur id="feGaussianBlur6419-8" stdDeviation="0.5" result="result91"/>
      <feDisplacementMap in2="result91" scale="27" xChannelSelector="R" yChannelSelector="G" in="result3" result="result4" id="feDisplacementMap6421-34"/>
      <feComposite in2="result4" operator="arithmetic" k1="1.3" k2="0" k3="0.8" k4="0" in="result4" result="result2" id="feComposite6423-6"/>
      <feBlend in2="result2" mode="screen" in="result2" id="feBlend6425-2"/>
    </filter>
    <clipPath id="clipPath6355-0">
      <path d="m 1905.733,776.14459 a 540.85913,357.92148 0 1 1 -1081.71823,0 540.85913,357.92148 0 1 1 1081.71823,0 z" transform="translate(-642.90851,82.38974)" id="path6357-50" style="fill:#ffffff;fill-opacity:1;stroke:none"/>
    </clipPath>
    <mask id="mask6207-1">
      <path d="m -386.55521,-832.91132 a 275.99722,245.77275 0 1 1 -551.99444,0 275.99722,245.77275 0 1 1 551.99444,0 z" transform="translate(-598.36717,56.937545)" id="path6209-2" style="fill:#ffffff;fill-opacity:1;stroke:none"/>
    </mask>
    <filter color-interpolation-filters="sRGB" id="filter4767-9">
      <feGaussianBlur stdDeviation="2.7382356" id="feGaussianBlur4769-2"/>
    </filter>
    <inkscape:path-effect effect="spiro" id="path-effect4709-7"/>
    <inkscape:path-effect effect="spiro" id="path-effect4717-7"/>
    <inkscape:path-effect effect="spiro" id="path-effect4721-6"/>
    <inkscape:path-effect effect="spiro" id="path-effect5916-9"/>
    <inkscape:path-effect effect="spiro" id="path-effect5948-4"/>
    <inkscape:path-effect effect="spiro" id="path-effect6193-50"/>
    <inkscape:path-effect effect="spiro" id="path-effect6197-3"/>
    <inkscape:path-effect effect="spiro" id="path-effect6201-4"/>
    <linearGradient id="linearGradient4006-5">
      <stop id="stop4008-6" style="stop-color:#ffffff;stop-opacity:1" offset="0"/>
      <stop id="stop4010-1" style="stop-color:#ffffff;stop-opacity:0" offset="1"/>
    </linearGradient>
    <clipPath id="clipPath3591">
      <path d="m 50.70562,213.18417 c 0,0 164.79327,223.10473 267.47215,266.2045 102.67888,43.09978 310.57192,48.17034 429.73013,17.74697 119.15821,-30.42337 215.49888,-124.22877 215.49888,-124.22877 0,0 -278.88091,-237.04877 -283.95147,-243.38698 -5.07056,-6.3382 -287.75439,-96.340673 -302.96608,-98.875954 -15.21169,-2.535281 -237.04877,8.873483 -237.04877,8.873483 L 65.917306,120.64641 z" id="path3593" style="fill:none;stroke:#000000;stroke-width:1px;stroke-linecap:butt;stroke-linejoin:miter;stroke-opacity:1"/>
    </clipPath>
    <linearGradient x1="808.59015" y1="367.66946" x2="828.93091" y2="1389.2277" id="linearGradient3608" xlink:href="#linearGradient3602" gradientUnits="userSpaceOnUse"/>
    <linearGradient x1="859.70496" y1="437.73209" x2="753.48096" y2="1108.9772" id="linearGradient3624" xlink:href="#linearGradient3618" gradientUnits="userSpaceOnUse"/>
    <filter color-interpolation-filters="sRGB" id="filter4432">
      <feGaussianBlur id="feGaussianBlur4434" stdDeviation="3.5524344"/>
    </filter>
    <radialGradient cx="396.77148" cy="452.66391" r="401.42749" fx="396.77148" fy="452.66391" id="radialGradient4466" xlink:href="#linearGradient4460" gradientUnits="userSpaceOnUse" gradientTransform="matrix(1.2220809,-0.03157833,0.01987491,0.76964436,-97.112027,105.49862)"/>
    <radialGradient cx="972.18793" cy="1029.501" r="401.42749" fx="972.18793" fy="1029.501" id="radialGradient4468" xlink:href="#linearGradient4460" gradientUnits="userSpaceOnUse" gradientTransform="matrix(-2.1563357,0.11823247,-0.04212844,-0.76874746,3251.1764,1543.6302)"/>
    <radialGradient cx="848.21295" cy="1103.7006" r="401.42749" fx="848.21295" fy="1103.7006" id="radialGradient4470" xlink:href="#linearGradient4460" gradientUnits="userSpaceOnUse" gradientTransform="matrix(-1.5201321,-0.5742722,0.27209906,-0.72021494,1950.4886,2210.1772)"/>
    <radialGradient cx="396.77148" cy="452.66391" r="401.42749" fx="396.77148" fy="452.66391" id="radialGradient4482" xlink:href="#linearGradient4460" gradientUnits="userSpaceOnUse" gradientTransform="matrix(1.2220809,-0.03157833,0.01987491,0.76964436,-97.112027,105.49862)"/>
    <radialGradient cx="396.77148" cy="452.66391" r="401.42749" fx="396.77148" fy="452.66391" id="radialGradient4484" xlink:href="#linearGradient4460" gradientUnits="userSpaceOnUse" gradientTransform="matrix(1.2220809,-0.03157833,0.01987491,0.76964436,-97.112027,105.49862)"/>
    <clipPath id="clipPath6355-9">
      <path d="m 1905.733,776.14459 a 540.85913,357.92148 0 1 1 -1081.71823,0 540.85913,357.92148 0 1 1 1081.71823,0 z" transform="translate(-642.90851,82.38974)" id="path6357-56" style="fill:#ffffff;fill-opacity:1;stroke:none"/>
    </clipPath>
    <clipPath id="clipPath4669">
      <path d="m 1905.733,776.14459 a 540.85913,357.92148 0 1 1 -1081.71823,0 540.85913,357.92148 0 1 1 1081.71823,0 z" transform="translate(-642.90851,82.38974)" id="path4671" style="fill:#ffffff;fill-opacity:1;stroke:none"/>
    </clipPath>
    <linearGradient x1="335.23758" y1="-120.96776" x2="335.23758" y2="300.32013" id="linearGradient4751" xlink:href="#linearGradient4743" gradientUnits="userSpaceOnUse"/>
    <linearGradient x1="335.23758" y1="-120.96776" x2="335.23758" y2="300.32013" id="linearGradient4755" xlink:href="#linearGradient4743" gradientUnits="userSpaceOnUse" gradientTransform="translate(0,527.95272)"/>
    <linearGradient x1="335.23758" y1="-120.96776" x2="335.23758" y2="300.32013" id="linearGradient4759" xlink:href="#linearGradient4743" gradientUnits="userSpaceOnUse" gradientTransform="translate(0,527.95272)"/>
    <linearGradient x1="335.23758" y1="-120.96776" x2="335.23758" y2="300.32013" id="linearGradient4763" xlink:href="#linearGradient4743" gradientUnits="userSpaceOnUse" gradientTransform="translate(0,527.95272)"/>
    <linearGradient x1="335.23758" y1="-120.96776" x2="335.23758" y2="300.32013" id="linearGradient4767" xlink:href="#linearGradient4743" gradientUnits="userSpaceOnUse" gradientTransform="translate(0,527.95272)"/>
    <linearGradient x1="335.23758" y1="-120.96776" x2="335.23758" y2="300.32013" id="linearGradient4771" xlink:href="#linearGradient4743" gradientUnits="userSpaceOnUse" gradientTransform="translate(0,527.95272)"/>
    <linearGradient x1="335.23758" y1="-120.96776" x2="335.23758" y2="300.32013" id="linearGradient4775" xlink:href="#linearGradient4743" gradientUnits="userSpaceOnUse" gradientTransform="translate(0,527.95272)"/>
    <linearGradient x1="335.23758" y1="-120.96776" x2="335.23758" y2="300.32013" id="linearGradient4779" xlink:href="#linearGradient4743" gradientUnits="userSpaceOnUse" gradientTransform="translate(0,527.95272)"/>
    <linearGradient x1="335.23758" y1="-120.96776" x2="335.23758" y2="300.32013" id="linearGradient4783" xlink:href="#linearGradient4743" gradientUnits="userSpaceOnUse" gradientTransform="translate(0,527.95272)"/>
    <filter color-interpolation-filters="sRGB" id="filter4791">
      <feGaussianBlur id="feGaussianBlur4793" stdDeviation="5.8572166"/>
    </filter>
    <linearGradient x1="421.28787" y1="649.0014" x2="403.36072" y2="901.77417" id="linearGradient4803" xlink:href="#linearGradient4797" gradientUnits="userSpaceOnUse"/>
  </defs>
  <g transform="translate(0,-527.95272)" id="layer1">
    <path d="m 129,534.28125 c -25.31995,2.54816 -47.117858,17.44286 -66.28125,33.15625 -26.412137,22.3214 -46.86592,54.39478 -47.798489,89.7186 -0.582341,17.1129 5.353177,33.412 11.329739,49.0939 3.10246,11.25233 13.87847,18.06699 19.625,27.71875 15.022462,12.08464 30.602439,24.08505 47.71875,33.0625 15.18728,7.65901 32.62515,7.87181 49.1875,9.5625 4.28668,0.16344 8.16082,1.93921 9.7387,6.19795 4.33152,6.38547 6.55364,13.58269 8.28514,20.90004 5.1924,12.02014 10.31413,24.18659 12.28982,37.29081 5.52881,22.29145 7.47583,46.9699 -2.62616,68.26745 -3.63716,8.90838 -2.66094,18.65084 0.65844,27.49024 8.87179,30.19588 22.69009,59.72542 44.74781,82.44726 9.22223,7.7696 22.2896,6.728 33.59375,8.0625 5.56295,0.079 15.35966,0.6883 16.03125,-6.8125 -1.08036,-3.3665 -0.33613,-6.6438 1.40625,-9.5313 0.27716,-7.7952 -8.70959,-11.68442 -15.09375,-13.24995 -5.60788,-0.22395 -11.57769,-2.04927 -13.50407,-7.97491 -5.82562,-12.79026 -16.34956,-23.43422 -19.58968,-37.30634 1.12373,-8.29125 6.56923,-16.33258 13,-21.4375 4.57712,2.13531 7.47643,7.88311 10.6875,11.90625 14.93076,19.66386 33.05546,37.05054 52.11838,52.77958 6.13157,3.78337 11.25962,8.82517 16.56912,13.50167 10.2271,3.48 21.56449,0.7715 32.18644,1.1848 6.20697,-0.2007 14.62039,0.051 17.15731,-7.0598 2.84162,-3.47441 2.82626,-8.71199 -1.15625,-11.25 -5.70721,-6.0295 -13.42761,-10.12287 -21.9375,-9.25 -6.71712,1.1599 -12.16378,-0.57652 -15.72049,-6.62156 C 312.47165,965.21187 300.7801,955.88919 294.46875,943 c 0.035,-7.82639 7.56421,-12.99981 12.59375,-18.15625 23.97161,-19.12983 44.73653,-42.52568 63.125,-66.96875 4.4637,-5.69975 8.28937,-14.57008 16.25,-15.6875 8.06682,1.97983 11.16631,11.48059 15.14143,17.82854 9.90479,20.94467 19.05745,42.48945 25.85857,64.54646 4.12451,18.02037 0.57224,36.75113 -4.33584,54.25877 -2.02815,12.37669 -7.53271,27.11223 1.09325,38.24003 3.94502,5.4509 9.79514,11.5412 16.96134,11.7512 15.60947,-3.2772 24.70362,-19.8698 26.34375,-34.71875 -0.35013,-10.27876 4.09828,-19.71651 3.92561,-30.02603 1.7146,-23.93923 2.23203,-48.53504 2.66814,-72.16147 3.91168,5.56331 2.72207,13.31727 4.3125,19.75 3.96664,32.75139 6.63819,65.68459 6.69625,98.68495 0.91302,10.9427 4.05873,25.2373 16.11625,28.5338 12.68276,1.5371 25.9879,1.652 38.46875,-1.2188 7.31446,-4.8341 4.26957,-15.7617 -1.1875,-20.9374 -3.84956,-4.711 -10.01178,-5.9289 -15.03125,-8.5313 -4.60197,-7.3727 -5.57294,-16.5721 -7.40625,-25.03125 -1.37138,-16.7867 7.29914,-32.20805 9.9016,-48.57056 6.30279,-28.93153 9.94876,-60.55575 30.2859,-83.67944 22.59085,-25.34264 40.78206,-54.29988 56.46325,-84.33235 3.53191,-5.95601 4.70433,-12.58211 6.60488,-19.07338 4.49439,-11.44019 9.65265,-23.90798 21.11937,-29.93802 22.11854,-16.38763 37.76246,-44.20394 34.03125,-72.40625 -0.97024,-12.32579 5.04668,-23.61639 5.75,-35.71875 2.08692,-13.05004 10.43512,-26.25796 6.53125,-39.71875 -2.45721,-6.48029 -10.68869,-2.41506 -15.03125,-0.53125 -13.28596,5.75395 -23.78692,16.18649 -34.75,25.1875 -3.89687,0.42591 -7.73373,-3.0645 -11.78125,-3.34375 -13.75764,-3.49038 -28.08233,-2.70935 -41.96875,-0.4375 -3.536,0.43275 -8.24742,0.97426 -9.09375,-3.5 -6.02813,-14.18749 -16.68642,-26.76777 -29.875,-34.875 -2.54768,-1.7737 -7.43811,-1.95379 -7.75,2.09375 -3.96058,23.54817 1.88388,49.14035 -8.625,71.3125 -3.40341,5.51629 -10.60818,0.23147 -14.59375,-1.84375 -12.46589,-7.81359 -24.456,-17.05942 -39.33617,-19.43105 -40.35735,-10.95221 -83.72677,-17.58719 -124.75758,-6.13145 -49.52244,11.10757 -98.21989,30.34388 -136.85804,63.89487 -9.5523,8.15976 -18.31478,17.45559 -29.11071,23.91763 -3.50954,2.9422 -3.67197,8.02107 -7.6875,10.6875 -4.92027,4.67472 -10.36634,9.25676 -13.25,15.34375 -6.80118,7.84181 -13.45244,18.34978 -24,20.875 -15.1379,0.33932 -28.96087,-7.87636 -41.90625,-14.90625 C 78.022809,707.11885 59.176563,692.1933 55.15625,670 c -3.580523,-15.70151 0.849082,-32.36094 10.094449,-45.28428 18.466875,-29.79555 43.157641,-55.79587 71.936801,-75.93447 3.69947,-2.25919 9.48254,-8.14766 4.21875,-11.9375 -3.56961,-2.52418 -8.16824,-2.72376 -12.40625,-2.5625 z m 426.375,113.1875 c 9.60477,1.81238 18.3624,6.865 27.03125,11.21875 3.5365,1.59023 6.461,5.0109 4.5,8.96875 -2.93899,6.92889 -12.64451,4.08928 -17.3125,0.5625 -6.08719,-5.47152 -13.30947,-11.85988 -15.375,-20.03125 -0.008,-0.60931 0.61897,-0.7052 1.15625,-0.71875 z M 646.125,659.5 c 3.7859,0.29783 8.52527,-0.37187 11.78125,0.84375 -1.53781,6.17826 -9.05384,8.39155 -14.15625,10.75 -5.72317,1.46809 -13.40515,5.49904 -18.6875,1.25 -2.44633,-3.22116 -1.45276,-8.13245 2.90625,-9.03125 5.61145,-3.08038 11.83539,-3.85897 18.15625,-3.8125 z" transform="matrix(1,0,0,1.0032901,1.7927144,4.3238886)" id="path4785" style="fill:#000000;filter:url(#filter4791)"/>
    <path d="m 499.69574,1036.4812 c -7.18357,-2.8614 -10.11892,-11.5898 -10.99499,-15.4032 -1.50061,-7.5479 -2.15438,-5.1996 -2.18319,-31.04872 -0.0247,-22.00789 -6.54154,-89.3259 -9.35812,-96.66571 -1.56359,-4.0747 -5.02982,-4.72557 -5.01602,-0.94214 0.10498,28.67231 -2.32193,80.1654 -3.98412,84.53733 -1.21038,3.18318 -2.20049,8.85297 -2.20049,12.59955 0,15.54789 -9.04399,31.36739 -20.69068,36.19159 -5.0784,2.1035 -6.72495,1.8279 -12.14731,-2.0331 -3.44996,-2.4566 -5.84867,-5.1585 -6.7338,-6.564 -1.84519,-2.9293 -2.80854,-4.041 -3.85773,-6.8137 -1.69925,-4.4898 -1.6517,-9.0065 0.12556,-19.89936 1.17538,-7.2091 3.52633,-17.65449 5.22413,-23.21209 1.69802,-5.5576 3.08726,-17.04743 3.08726,-25.53276 0,-13.19404 -1.23259,-18.58655 -8.51106,-37.23958 -27.17994,-69.65559 -34.44359,-76.43385 -52.69254,-49.17013 -10.9425,16.34798 -41.59032,50.22241 -55.09867,60.89957 -15.23209,12.03966 -22.1283,20.10918 -22.1283,25.89259 0,3.59735 5.18996,10.77906 17.20326,23.80553 l 17.20307,18.65406 10.40627,0 c 8.50632,0 11.70763,1.09921 17.53303,6.02055 6.94725,5.8686 7.0473,6.16693 3.96539,11.83612 -3.1204,5.7401 -3.43987,5.8231 -24.63446,6.407 -19.04126,0.5246 -21.83025,0.1483 -24.62747,-3.3211 -1.73507,-2.152 -6.49215,-6.1234 -10.57116,-8.82529 -13.28933,-8.80277 -46.33153,-41.65578 -55.1458,-54.83006 -4.73423,-7.07591 -9.95671,-12.86529 -11.60553,-12.86529 -4.51561,0 -15.37454,16.23312 -15.37454,22.98338 0,3.24412 3.12781,10.74716 6.95076,16.67343 3.82274,5.92627 9.16626,14.9435 11.87436,20.03816 4.44171,8.35622 5.80873,9.38154 13.96306,10.47445 9.9882,1.33852 18.27716,8.71422 14.67323,13.05642 -1.10189,1.3278 -1.48187,4.408 -0.84458,6.845 1.53375,5.865 -5.47321,7.6593 -22.5474,5.7735 -19.94327,-2.2025 -21.24503,-2.8594 -32.2709,-16.2856 -13.57073,-16.52518 -27.07125,-42.89409 -34.24062,-66.8783 -5.73359,-19.18142 -5.73894,-19.25471 -2.26923,-31.90593 13.87372,-30.32504 4.43245,-60.06734 0.56422,-78.55075 -0.78674,-4.52859 -3.68071,-13.03944 -6.43079,-18.91322 -2.75009,-5.87358 -5.00018,-11.95217 -5.00018,-13.50774 0,-4.10783 -7.47277,-18.93359 -11.03224,-21.88767 -1.67454,-1.38987 -10.82126,-2.8845 -20.32635,-3.32172 -17.2679,-0.79436 -31.649649,-4.95345 -44.019065,-12.73026 -14.268744,-8.97113 -39.895383,-27.90575 -39.895383,-29.47737 0,-0.94566 -3.707057,-5.57739 -8.237906,-10.29306 -4.530642,-4.7157 -8.808095,-11.04378 -9.505086,-14.06249 -0.696989,-3.01872 -2.912497,-9.19385 -4.923187,-13.72243 -2.010692,-4.52859 -4.739576,-15.40357 -6.06398,-24.16659 -4.896017,-40.03619 19.699957,-74.21999 36.94501,-91.6221 41.551203,-39.48719 77.457517,-45.7984 86.049477,-39.1918 9.97956,7.67348 -31.60396,15.59788 -75.552836,83.85413 -8.699822,13.51166 -12.53615,22.38065 -12.53615,36.51954 0,14.16291 5.073455,27.6293 14.402132,38.22721 17.083876,19.40846 56.783914,40.24345 71.996464,37.78486 5.18646,-0.83841 9.8476,-4.09139 16.98219,-11.85192 5.40856,-5.88307 9.83382,-11.53328 9.83382,-12.55635 0,-1.02284 3.7052,-5.18602 8.23377,-9.25146 4.52859,-4.06543 8.23379,-8.60536 8.23379,-10.08866 0,-1.48352 2.54733,-4.04649 5.66073,-5.69572 3.1134,-1.64902 9.82908,-7.02198 14.92374,-11.93963 41.44251,-38.6492 86.26685,-60.26082 156.86418,-75.50855 39.537,-9.00324 81.88729,-0.5731 119.62727,9.77165 19.64459,3.57202 43.5057,31.95451 50.51265,18.90804 5.17432,-9.92724 7.00387,-22.77834 7.28155,-51.14497 0.12969,-13.35541 1.05578,-21.95355 2.41106,-22.40785 3.97816,-1.33367 16.00505,8.46555 25.13879,20.48236 8.51497,11.20291 7.88879,17.92495 12.10099,18.98507 10.47256,0.91684 21.78681,-3.09736 30.52101,-1.83531 11.26177,0.43412 18.15654,1.65211 28.11489,5.71466 2.93576,1.19781 6.81161,-3.64841 14.45977,-10.277 14.05816,-12.18395 32.26698,-21.06141 34.84662,-16.98898 2.85817,4.51211 2.16365,12.65407 -2.26058,26.50313 -2.26429,7.08783 -4.12698,14.85045 -4.13933,17.25037 -0.0205,2.39974 -1.40963,8.93696 -3.10537,14.52711 -2.08583,6.87602 -2.6799,14.2006 -1.83656,22.64292 2.38081,23.8327 -13.6055,53.49574 -36.86122,68.39705 -5.58869,3.58106 -9.60492,8.72308 -13.89287,17.78702 -3.3176,7.01253 -6.03249,13.99829 -6.03331,15.52401 0,10.89474 -36.48557,70.5963 -56.72278,92.83165 -17.40438,19.12297 -24.46588,35.24967 -31.59573,72.15763 -2.2964,11.88753 -5.6636,26.70835 -7.48266,32.93515 -7.70456,26.37221 -7.91349,28.88949 -3.74905,45.14957 3.5148,13.7245 4.52571,15.4643 9.80459,16.8762 12.48016,3.3375 20.04805,17.139 13.16974,24.0173 -2.71755,2.7175 -36.0714,3.4646 -39.95548,0.8948 z M 644.356,672.77584 c 9.33731,-3.34088 18.22281,-9.77888 14.52172,-14.5131 0,0 -19.34076,-1.83817 -26.67603,1.29437 -7.08868,3.02692 -12.85789,4.38841 -9.10327,12.90564 2.57161,5.83323 13.10078,3.23133 21.25758,0.31368 z m -56.46383,-2.99033 c 1.6375,-2.75171 1.18134,-5.62921 1.18134,-6.68048 0,-3.02139 -7.57261,-7.50489 -14.48364,-10.36756 -7.49172,-3.10313 -22.23123,-11.39495 -22.17936,-4.20046 0.0391,5.37337 12.42602,19.216 17.7823,22.25344 5.90961,3.35096 14.34388,4.63379 17.69936,-1.00494 z" id="path3015" style="fill:#550000"/>
    <path d="m 499.69574,1036.4812 c -7.18357,-2.8614 -10.11892,-11.5898 -10.99499,-15.4032 -1.50061,-7.5479 -2.15438,-5.1996 -2.18319,-31.04872 -0.0247,-22.00789 -6.54154,-89.3259 -9.35812,-96.66571 -1.56359,-4.0747 -5.02982,-4.72557 -5.01602,-0.94214 0.10498,28.67231 -2.32193,80.1654 -3.98412,84.53733 -1.21038,3.18318 -2.20049,8.85297 -2.20049,12.59955 0,15.54789 -9.04399,31.36739 -20.69068,36.19159 -5.0784,2.1035 -6.72495,1.8279 -12.14731,-2.0331 -3.44996,-2.4566 -5.84867,-5.1585 -6.7338,-6.564 -1.84519,-2.9293 -2.80854,-4.041 -3.85773,-6.8137 -1.69925,-4.4898 -1.6517,-9.0065 0.12556,-19.89936 1.17538,-7.2091 3.52633,-17.65449 5.22413,-23.21209 1.69802,-5.5576 3.08726,-17.04743 3.08726,-25.53276 0,-13.19404 -1.23259,-18.58655 -8.51106,-37.23958 -27.17994,-69.65559 -34.44359,-76.43385 -52.69254,-49.17013 -10.9425,16.34798 -41.59032,50.22241 -55.09867,60.89957 -15.23209,12.03966 -22.1283,20.10918 -22.1283,25.89259 0,3.59735 5.18996,10.77906 17.20326,23.80553 l 17.20307,18.65406 10.40627,0 c 8.50632,0 11.70763,1.09921 17.53303,6.02055 6.94725,5.8686 7.0473,6.16693 3.96539,11.83612 -3.1204,5.7401 -3.43987,5.8231 -24.63446,6.407 -19.04126,0.5246 -21.83025,0.1483 -24.62747,-3.3211 -1.73507,-2.152 -6.49215,-6.1234 -10.57116,-8.82529 -13.28933,-8.80277 -46.33153,-41.65578 -55.1458,-54.83006 -4.73423,-7.07591 -9.95671,-12.86529 -11.60553,-12.86529 -4.51561,0 -15.37454,16.23312 -15.37454,22.98338 0,3.24412 3.12781,10.74716 6.95076,16.67343 3.82274,5.92627 9.16626,14.9435 11.87436,20.03816 4.44171,8.35622 5.80873,9.38154 13.96306,10.47445 9.9882,1.33852 18.27716,8.71422 14.67323,13.05642 -1.10189,1.3278 -1.48187,4.408 -0.84458,6.845 1.53375,5.865 -5.47321,7.6593 -22.5474,5.7735 -19.94327,-2.2025 -21.24503,-2.8594 -32.2709,-16.2856 -13.57073,-16.52518 -27.07125,-42.89409 -34.24062,-66.8783 -5.73359,-19.18142 -5.73894,-19.25471 -2.26923,-31.90593 13.87372,-30.32504 4.43245,-60.06734 0.56422,-78.55075 -0.78674,-4.52859 -3.68071,-13.03944 -6.43079,-18.91322 -2.75009,-5.87358 -5.00018,-11.95217 -5.00018,-13.50774 0,-4.10783 -7.47277,-18.93359 -11.03224,-21.88767 -1.67454,-1.38987 -10.82126,-2.8845 -20.32635,-3.32172 -17.2679,-0.79436 -31.649649,-4.95345 -44.019065,-12.73026 -14.268744,-8.97113 -39.895383,-27.90575 -39.895383,-29.47737 0,-0.94566 -3.707057,-5.57739 -8.237906,-10.29306 -4.530642,-4.7157 -8.808095,-11.04378 -9.505086,-14.06249 -0.696989,-3.01872 -2.912497,-9.19385 -4.923187,-13.72243 -2.010692,-4.52859 -4.739576,-15.40357 -6.06398,-24.16659 -4.896017,-40.03619 19.699957,-74.21999 36.94501,-91.6221 41.551203,-39.48719 77.457517,-45.7984 86.049477,-39.1918 9.97956,7.67348 -31.60396,15.59788 -75.552836,83.85413 -8.699822,13.51166 -12.53615,22.38065 -12.53615,36.51954 0,14.16291 5.073455,27.6293 14.402132,38.22721 17.083876,19.40846 56.783914,40.24345 71.996464,37.78486 5.18646,-0.83841 9.8476,-4.09139 16.98219,-11.85192 5.40856,-5.88307 9.83382,-11.53328 9.83382,-12.55635 0,-1.02284 3.7052,-5.18602 8.23377,-9.25146 4.52859,-4.06543 8.23379,-8.60536 8.23379,-10.08866 0,-1.48352 2.54733,-4.04649 5.66073,-5.69572 3.1134,-1.64902 9.82908,-7.02198 14.92374,-11.93963 41.44251,-38.6492 86.26685,-60.26082 156.86418,-75.50855 39.537,-9.00324 81.88729,-0.5731 119.62727,9.77165 19.64459,3.57202 43.5057,31.95451 50.51265,18.90804 5.17432,-9.92724 7.00387,-22.77834 7.28155,-51.14497 0.12969,-13.35541 1.05578,-21.95355 2.41106,-22.40785 3.97816,-1.33367 16.00505,8.46555 25.13879,20.48236 8.51497,11.20291 7.88879,17.92495 12.10099,18.98507 10.47256,0.91684 21.78681,-3.09736 30.52101,-1.83531 11.26177,0.43412 18.15654,1.65211 28.11489,5.71466 2.93576,1.19781 6.81161,-3.64841 14.45977,-10.277 14.05816,-12.18395 32.26698,-21.06141 34.84662,-16.98898 2.85817,4.51211 2.16365,12.65407 -2.26058,26.50313 -2.26429,7.08783 -4.12698,14.85045 -4.13933,17.25037 -0.0205,2.39974 -1.40963,8.93696 -3.10537,14.52711 -2.08583,6.87602 -2.6799,14.2006 -1.83656,22.64292 2.38081,23.8327 -13.6055,53.49574 -36.86122,68.39705 -5.58869,3.58106 -9.60492,8.72308 -13.89287,17.78702 -3.3176,7.01253 -6.03249,13.99829 -6.03331,15.52401 0,10.89474 -36.48557,70.5963 -56.72278,92.83165 -17.40438,19.12297 -24.46588,35.24967 -31.59573,72.15763 -2.2964,11.88753 -5.6636,26.70835 -7.48266,32.93515 -7.70456,26.37221 -7.91349,28.88949 -3.74905,45.14957 3.5148,13.7245 4.52571,15.4643 9.80459,16.8762 12.48016,3.3375 20.04805,17.139 13.16974,24.0173 -2.71755,2.7175 -36.0714,3.4646 -39.95548,0.8948 z M 644.356,672.77584 c 9.33731,-3.34088 18.22281,-9.77888 14.52172,-14.5131 0,0 -19.34076,-1.83817 -26.67603,1.29437 -7.08868,3.02692 -12.85789,4.38841 -9.10327,12.90564 2.57161,5.83323 13.10078,3.23133 21.25758,0.31368 z m -56.46383,-2.99033 c 1.6375,-2.75171 1.18134,-5.62921 1.18134,-6.68048 0,-3.02139 -7.57261,-7.50489 -14.48364,-10.36756 -7.49172,-3.10313 -22.23123,-11.39495 -22.17936,-4.20046 0.0391,5.37337 12.42602,19.216 17.7823,22.25344 5.90961,3.35096 14.34388,4.63379 17.69936,-1.00494 z" id="path4795" style="fill:url(#linearGradient4803);fill-opacity:1"/>
  </g>
  <metadata>
    <rdf:RDF>
      <cc:Work>
        <dc:format>image/svg+xml</dc:format>
        <dc:type rdf:resource="http://purl.org/dc/dcmitype/StillImage"/>
        <cc:license rdf:resource="http://creativecommons.org/licenses/publicdomain/"/>
        <dc:publisher>
          <cc:Agent rdf:about="http://openclipart.org/">
            <dc:title>Open Clip Art Library</dc:title>
          </cc:Agent>
        </dc:publisher>
        <dc:title>Cat -3</dc:title>
        <dc:date>2010-09-20T17:47:48</dc:date>
        <dc:description>Halloween Clip Art</dc:description>
        <dc:source>http://openclipart.org/detail/85741/cat--3-by-inky2010</dc:source>
        <dc:creator>
          <cc:Agent>
            <dc:title>inky2010</dc:title>
          </cc:Agent>
        </dc:creator>
        <dc:subject>
          <rdf:Bag>
            <rdf:li>halloween2010</rdf:li>
            <rdf:li>Halloween</rdf:li>
            <rdf:li>clip art</rdf:li>
            <rdf:li>inky2010</rdf:li>
            <rdf:li>Inkscape</rdf:li>
            <rdf:li>black</rdf:li>
            <rdf:li>silhouette</rdf:li>
            <rdf:li>2010</rdf:li>
            <rdf:li>free</rdf:li>
            <rdf:li>icon</rdf:li>
            <rdf:li>clip</rdf:li>
            <rdf:li>avatar</rdf:li>
            <rdf:li>spooky</rdf:li>
            <rdf:li>ghost</rdf:li>
            <rdf:li>text</rdf:li>
            <rdf:li>shade</rdf:li>
            <rdf:li>cat</rdf:li>
            <rdf:li>dark</rdf:li>
            <rdf:li>witch</rdf:li>
            <rdf:li>grave</rdf:li>
          </rdf:Bag>
        </dc:subject>
      </cc:Work>
      <cc:License rdf:about="http://creativecommons.org/licenses/publicdomain/">
        <cc:permits rdf:resource="http://creativecommons.org/ns#Reproduction"/>
        <cc:permits rdf:resource="http://creativecommons.org/ns#Distribution"/>
        <cc:permits rdf:resource="http://creativecommons.org/ns#DerivativeWorks"/>
      </cc:License>
    </rdf:RDF>
  </metadata>
</svg>
